<?xml version="1.0" encoding="UTF-8"?>
<svg version="1.1" xmlns="http://www.w3.org/2000/svg" width="1563" height="1563">
<path d="M0 0 C6.66275488 5.47596877 12.69388942 11.55588717 18.77787685 17.65482903 C19.97791695 18.85412888 21.17817649 20.0532092 22.37863478 21.25209045 C25.68079493 24.55118478 28.97982981 27.85338895 32.27836914 31.15610295 C35.86588363 34.74705381 39.45630223 38.33509903 43.04635531 41.92351162 C49.33916474 48.21424735 55.6301131 54.50683942 61.9198513 60.80064583 C71.27248698 70.159314 80.62798565 79.51511621 89.98407698 88.87032952 C105.7220653 104.60700353 121.4577275 120.34600178 137.19206047 136.08633041 C152.77334209 151.67353518 168.3556588 167.25970397 183.93936348 182.84448624 C184.42339461 183.32855178 184.90742575 183.81261733 185.40612449 184.31135153 C189.82702631 188.73256654 194.24794088 193.15376881 198.66887076 197.57495577 C209.65863737 208.56536176 220.648244 219.55592771 231.63774204 230.54660225 C232.38838517 231.29732535 232.38838517 231.29732535 233.1541928 232.06321457 C257.49510641 256.40674948 281.83417664 280.75212719 306.1730957 305.09765625 C314.6188798 313.54573201 323.06467205 321.99379963 331.51049805 330.4418335 C332.03431147 330.96578387 332.5581249 331.48973425 333.09781146 332.0295619 C357.4502025 356.38829745 381.8039032 380.74572345 406.15794165 405.10281189 C407.73909287 406.68416118 409.32024353 408.26551103 410.90139407 409.846861 C421.3797932 420.32657991 431.85821489 430.80627625 442.3366517 441.28595748 C463.18600475 462.13778701 484.03522519 482.98974913 504.88435452 503.84180235 C505.87723653 504.8348236 506.87011863 505.82784475 507.86300082 506.82086581 C569.08848499 568.05491533 630.31107619 629.29185718 706 705 C700.52403123 711.66275488 694.44411283 717.69388942 688.34517097 723.77787685 C687.14587112 724.97791695 685.9467908 726.17817649 684.74790955 727.37863478 C681.44881522 730.68079493 678.14661105 733.97982981 674.84389705 737.27836914 C671.25294619 740.86588363 667.66490097 744.45630223 664.07648838 748.04635531 C657.78575265 754.33916474 651.49316058 760.6301131 645.19935417 766.9198513 C635.840686 776.27248698 626.48488379 785.62798565 617.12967048 794.98407698 C601.39299647 810.7220653 585.65399822 826.4577275 569.91366959 842.19206047 C554.32646482 857.77334209 538.74029603 873.3556588 523.15551376 888.93936348 C522.67144822 889.42339461 522.18738267 889.90742575 521.68864847 890.40612449 C517.26743346 894.82702631 512.84623119 899.24794088 508.42504423 903.66887076 C497.43463824 914.65863737 486.44407229 925.648244 475.45339775 936.63774204 C474.95291568 937.13817079 474.45243362 937.63859954 473.93678543 938.1541928 C449.59325052 962.49510641 425.24787281 986.83417664 400.90234375 1011.1730957 C392.45426799 1019.6188798 384.00620037 1028.06467205 375.5581665 1036.51049805 C375.03421613 1037.03431147 374.51026575 1037.5581249 373.9704381 1038.09781146 C349.61170255 1062.4502025 325.25427655 1086.8039032 300.89718811 1111.15794165 C299.31583882 1112.73909287 297.73448897 1114.32024353 296.153139 1115.90139407 C285.67342009 1126.3797932 275.19372375 1136.85821489 264.71404252 1147.3366517 C243.86221299 1168.18600475 223.01025087 1189.03522519 202.15819765 1209.88435452 C201.1651764 1210.87723653 200.17215525 1211.87011863 199.17913419 1212.86300082 C137.94508467 1274.08848499 76.70814282 1335.31107619 1 1411 C-5.66275488 1405.52403123 -11.69388942 1399.44411283 -17.77787685 1393.34517097 C-18.97791695 1392.14587112 -20.17817649 1390.9467908 -21.37863478 1389.74790955 C-24.68079493 1386.44881522 -27.97982981 1383.14661105 -31.27836914 1379.84389705 C-34.86588363 1376.25294619 -38.45630223 1372.66490097 -42.04635531 1369.07648838 C-48.33916474 1362.78575265 -54.6301131 1356.49316058 -60.9198513 1350.19935417 C-70.27248698 1340.840686 -79.62798565 1331.48488379 -88.98407698 1322.12967048 C-104.7220653 1306.39299647 -120.4577275 1290.65399822 -136.19206047 1274.91366959 C-151.77334209 1259.32646482 -167.3556588 1243.74029603 -182.93936348 1228.15551376 C-183.42339461 1227.67144822 -183.90742575 1227.18738267 -184.40612449 1226.68864847 C-188.82702631 1222.26743346 -193.24794088 1217.84623119 -197.66887076 1213.42504423 C-208.65863737 1202.43463824 -219.648244 1191.44407229 -230.63774204 1180.45339775 C-231.13817079 1179.95291568 -231.63859954 1179.45243362 -232.1541928 1178.93678543 C-256.49510641 1154.59325052 -280.83417664 1130.24787281 -305.1730957 1105.90234375 C-313.6188798 1097.45426799 -322.06467205 1089.00620037 -330.51049805 1080.5581665 C-331.03431147 1080.03421613 -331.5581249 1079.51026575 -332.09781146 1078.9704381 C-356.4502025 1054.61170255 -380.8039032 1030.25427655 -405.15794165 1005.89718811 C-406.73909287 1004.31583882 -408.32024353 1002.73448897 -409.90139407 1001.153139 C-420.3797932 990.67342009 -430.85821489 980.19372375 -441.3366517 969.71404252 C-462.18600475 948.86221299 -483.03522519 928.01025087 -503.88435452 907.15819765 C-504.87723653 906.1651764 -505.87011863 905.17215525 -506.86300082 904.17913419 C-568.08848499 842.94508467 -629.31107619 781.70814282 -705 706 C-699.52403123 699.33724512 -693.44411283 693.30611058 -687.34517097 687.22212315 C-686.14587112 686.02208305 -684.9467908 684.82182351 -683.74790955 683.62136522 C-680.44881522 680.31920507 -677.14661105 677.02017019 -673.84389705 673.72163086 C-670.25294619 670.13411637 -666.66490097 666.54369777 -663.07648838 662.95364469 C-656.78575265 656.66083526 -650.49316058 650.3698869 -644.19935417 644.0801487 C-634.840686 634.72751302 -625.48488379 625.37201435 -616.12967048 616.01592302 C-600.39299647 600.2779347 -584.65399822 584.5422725 -568.91366959 568.80793953 C-553.32646482 553.22665791 -537.74029603 537.6443412 -522.15551376 522.06063652 C-521.67144822 521.57660539 -521.18738267 521.09257425 -520.68864847 520.59387551 C-516.26743346 516.17297369 -511.84623119 511.75205912 -507.42504423 507.33112924 C-496.43463824 496.34136263 -485.44407229 485.351756 -474.45339775 474.36225796 C-473.70267465 473.61161483 -473.70267465 473.61161483 -472.93678543 472.8458072 C-448.59325052 448.50489359 -424.24787281 424.16582336 -399.90234375 399.8269043 C-391.45426799 391.3811202 -383.00620037 382.93532795 -374.5581665 374.48950195 C-374.03421613 373.96568853 -373.51026575 373.4418751 -372.9704381 372.90218854 C-348.61170255 348.5497975 -324.25427655 324.1960968 -299.89718811 299.84205835 C-298.31583882 298.26090713 -296.73448897 296.67975647 -295.153139 295.09860593 C-284.67342009 284.6202068 -274.19372375 274.14178511 -263.71404252 263.6633483 C-242.86221299 242.81399525 -222.01025087 221.96477481 -201.15819765 201.11564548 C-200.1651764 200.12276347 -199.17215525 199.12988137 -198.17913419 198.13699918 C-136.94508467 136.91151501 -75.70814282 75.68892381 0 0 Z M-4.3823911 53.12889057 C-4.98976923 53.74277651 -5.59714737 54.35666246 -6.22293091 54.989151 C-6.86828006 55.63349687 -7.51362921 56.27784273 -8.17853439 56.94171423 C-10.35573872 59.11796039 -12.52569107 61.30129993 -14.69580078 63.48461914 C-16.24916186 65.04017989 -17.80296979 66.59529453 -19.35719299 68.1499939 C-22.71208241 71.5078246 -26.06378086 74.86879789 -29.41308975 78.2321949 C-34.71160289 83.55292167 -40.0171465 88.86659985 -45.32369995 94.17930603 C-52.76667949 101.63238921 -60.20651567 109.08859736 -67.64355469 116.54760742 C-68.35197208 117.25811479 -68.35197208 117.25811479 -69.07470094 117.98297583 C-69.54753645 118.45720687 -70.02037196 118.93143792 -70.50753582 119.42003959 C-77.19541254 126.12764021 -83.88422813 132.83430262 -90.57421875 139.53979492 C-91.04410237 140.0107694 -91.513986 140.48174387 -91.99810852 140.9669903 C-99.84781772 148.83475657 -107.69958561 156.70046657 -115.55239284 164.56514066 C-120.8230997 169.8442434 -126.09098345 175.12614247 -131.356601 180.41032135 C-134.64082769 183.70522276 -137.92710974 186.99806857 -141.2138958 190.29041672 C-142.73369114 191.8136709 -144.25261461 193.33779557 -145.7705822 194.86287117 C-147.84977458 196.95158093 -149.93209705 199.03712206 -152.01516724 201.1219635 C-152.60916104 201.72023439 -153.20315485 202.31850528 -153.81514847 202.93490559 C-156.68158222 205.79751956 -159.59757459 208.54339751 -162.67656648 211.17691565 C-167.18546892 215.10738504 -171.41589359 219.27835297 -175.63689423 223.5138464 C-176.89169502 224.76691642 -176.89169502 224.76691642 -178.17184532 226.04530099 C-180.48248658 228.35375951 -182.79088693 230.66443138 -185.09834104 232.97607485 C-187.61323952 235.49442435 -190.13105785 238.00985187 -192.64850092 240.52565724 C-197.05650805 244.9315952 -201.46266151 249.33938006 -205.86759567 253.7483902 C-212.41754415 260.30438261 -218.97036695 266.85749645 -225.52377645 273.41002899 C-236.54845851 284.43339815 -247.57081432 295.45909057 -258.59184265 306.48611259 C-269.50281177 317.40300033 -280.41481574 328.31885195 -291.32820129 339.23332405 C-292.3463413 340.25156717 -292.3463413 340.25156717 -293.38504979 341.29038085 C-296.83218544 344.73785484 -300.27933957 348.18531035 -303.72650081 351.63275874 C-328.13770194 376.04605984 -352.54658416 400.4616782 -376.95410156 424.87866211 C-400.66451527 448.59826133 -424.37597997 472.31680912 -448.08886719 496.03393555 C-449.18541997 497.13068562 -449.18541997 497.13068562 -450.30412533 498.24959225 C-457.64553488 505.59232033 -464.98696579 512.93502705 -472.32841234 520.27771813 C-487.28355916 535.2354011 -502.23856341 550.1932266 -517.19348145 565.15113831 C-517.8810727 565.83886685 -518.56866395 566.52659539 -519.2770913 567.23516419 C-565.187116 613.15438834 -611.09381745 659.07693484 -657 705 C-651.7357499 711.38209522 -645.94617307 717.19229674 -640.09480476 723.02824306 C-638.9773655 724.14642269 -637.8601458 725.26482175 -636.74312496 726.38341936 C-633.67131827 729.45828988 -630.59640515 732.53003738 -627.520979 735.6012872 C-624.17641226 738.94241589 -620.83475306 742.28645047 -617.49272525 745.63011843 C-611.6345835 751.49033337 -605.77458654 757.34868802 -599.91337395 763.20583153 C-591.19796534 771.91520634 -582.48542417 780.62744539 -573.77347098 789.34027649 C-559.11866476 803.99639684 -544.46153133 818.65018771 -529.80307388 833.30265617 C-515.28765035 847.81216434 -500.77325984 862.3227046 -486.26025009 876.83462715 C-485.35815078 877.73665773 -484.45605146 878.6386883 -483.5266158 879.56805314 C-478.94538563 884.14894498 -474.36417393 888.7298553 -469.78296934 893.31077272 C-437.32736461 925.76427659 -404.86944212 958.21546121 -372.41015625 990.6652832 C-364.54313517 998.53001261 -356.67612224 1006.39475017 -348.80914307 1014.25952148 C-348.32122854 1014.74729906 -347.83331402 1015.23507663 -347.33061421 1015.73763535 C-324.6463156 1038.41558921 -301.96332673 1061.09485293 -279.28067538 1083.77445438 C-277.80799858 1085.24693312 -276.33532121 1086.71941129 -274.86264373 1088.19188935 C-265.10308801 1097.95012527 -255.34355487 1107.70838377 -245.58403683 1117.46665738 C-225.70246009 1137.34569864 -205.82074009 1157.22459661 -185.93893433 1177.10340881 C-184.56771 1178.4744272 -184.56771 1178.4744272 -183.16878418 1179.87314293 C-122.11490941 1240.91781576 -61.05771328 1301.95916654 0 1363 C6.38209522 1357.7357499 12.19229674 1351.94617307 18.02824306 1346.09480476 C19.14642269 1344.9773655 20.26482175 1343.8601458 21.38341936 1342.74312496 C24.45828988 1339.67131827 27.53003738 1336.59640515 30.6012872 1333.520979 C33.94241589 1330.17641226 37.28645047 1326.83475306 40.63011843 1323.49272525 C46.49033337 1317.6345835 52.34868802 1311.77458654 58.20583153 1305.91337395 C66.91520634 1297.19796534 75.62744539 1288.48542417 84.34027649 1279.77347098 C98.99639684 1265.11866476 113.65018771 1250.46153133 128.30265617 1235.80307388 C142.81216434 1221.28765035 157.3227046 1206.77325984 171.83462715 1192.26025009 C172.73665773 1191.35815078 173.6386883 1190.45605146 174.56805314 1189.5266158 C179.14894498 1184.94538563 183.7298553 1180.36417393 188.31077272 1175.78296934 C220.76427659 1143.32736461 253.21546121 1110.86944212 285.6652832 1078.41015625 C293.53001261 1070.54313517 301.39475017 1062.67612224 309.25952148 1054.80914307 C309.74729906 1054.32122854 310.23507663 1053.83331402 310.73763535 1053.33061421 C333.41558921 1030.6463156 356.09485293 1007.96332673 378.77445438 985.28067538 C380.24693312 983.80799858 381.71941129 982.33532121 383.19188935 980.86264373 C392.95012527 971.10308801 402.70838377 961.34355487 412.46665738 951.58403683 C432.34569864 931.70246009 452.22459661 911.82074009 472.10340881 891.93893433 C473.01742107 891.02478478 473.93143333 890.11063523 474.87314293 889.16878418 C535.91781576 828.11490941 596.95916654 767.05771328 658 706 C652.74067257 699.62530241 646.95956642 693.81875114 641.11600876 687.98737431 C640.0008812 686.87089897 638.88597214 685.75420537 637.77126098 684.63731429 C634.70585298 681.56718347 631.63734492 678.50016757 628.56832093 675.43365201 C625.23067731 672.09764251 621.8959237 668.75874618 618.56079793 665.42021984 C612.7147395 659.56900789 606.86681526 653.71966589 601.01766586 647.87154388 C592.32013499 639.17553701 583.62544774 630.4766911 574.9312993 621.77730269 C558.50320467 605.33953355 542.07167843 588.90519759 525.63903233 572.47197867 C512.95540399 559.78789107 500.27257474 547.103005 487.59030914 534.41755486 C483.94200532 530.76835352 480.29369764 527.11915603 476.64538884 523.46995968 C475.7384731 522.56282289 474.83155736 521.6556861 473.89715933 520.72106032 C448.38704316 495.20478981 422.87582605 469.68962062 397.36240768 444.17665195 C396.39067773 443.20493778 395.41894779 442.23322358 394.44721788 441.26150935 C390.05990495 436.87426981 385.67258462 432.48703765 381.28526222 428.09980758 C379.32882323 426.14340972 377.37238473 424.18701136 375.41594628 422.23061295 C374.43671509 421.25140216 373.45748358 420.27219167 372.47825177 419.2929815 C341.49215288 388.30756334 310.51006052 357.31814438 279.53125 326.32543945 C271.72147908 318.51216765 263.9116924 310.69891159 256.10181808 302.88574314 C255.62096521 302.40468739 255.14011233 301.92363164 254.64468816 301.42799844 C228.70506363 275.47749591 202.7609925 249.53144003 176.81557584 223.58672851 C173.16851489 219.9397422 169.52146691 216.29274293 165.8744278 212.64573479 C164.52737685 211.29870132 164.52737685 211.29870132 163.15311275 209.92445506 C148.67010526 195.4414784 134.1903152 180.95528911 119.71162343 166.46799816 C105.17801268 151.92593374 90.64069399 137.38758433 76.09955928 122.85304333 C67.44957913 114.20677358 58.80241055 105.55771366 50.15916743 96.90470913 C44.3965047 91.13608552 38.63026309 85.37105644 32.86101086 79.60902307 C29.5669096 76.31883641 26.27446213 73.02703762 22.98632988 69.73088474 C20.0016164 66.73895395 17.01243204 63.75157084 14.01944172 60.76792045 C12.93795089 59.68816673 11.85817306 58.60669418 10.78022555 57.52340306 C9.32783159 56.06428635 7.8687756 54.61180973 6.40931201 53.15976435 C5.59986716 52.35023128 4.79042232 51.54069821 3.95644884 50.70663384 C0.12653551 47.36575441 -1.27159602 50.03703003 -4.3823911 53.12889057 Z " fill="#FFCA28" transform="translate(781,76)"/>
<path d="M0 0 C3.30703374 1.44483109 5.49115558 3.23998914 8.03738481 5.78323448 C8.8378765 6.57795046 9.63836819 7.37266644 10.46311721 8.19146472 C11.77618193 9.51026662 11.77618193 9.51026662 13.1157732 10.85571098 C14.06171071 11.79865261 15.00808463 12.7411566 15.95485577 13.68326122 C18.5683195 16.28640499 21.17548773 18.89577671 23.78170847 21.50616928 C26.61320485 24.3400243 29.45044788 27.16811574 32.28696603 29.99694264 C37.26180218 34.95991178 42.23286813 39.92663275 47.20150757 44.89580536 C54.58981811 52.28490783 61.98378044 59.66833526 69.37882014 67.05070236 C84.12195944 81.76907926 98.85709597 96.49545331 113.59036436 111.22371009 C114.73530033 112.3682543 114.73530033 112.3682543 115.90336633 113.53592062 C116.66814284 114.30043686 117.43291936 115.0649531 118.22087092 115.85263651 C126.68705707 124.31574324 135.15495453 132.7771371 143.62291527 141.23846817 C169.18392988 166.77983449 194.74332192 192.32282168 220.29592609 217.87260246 C221.11352611 218.69010842 221.93112613 219.50761438 222.77350191 220.34989324 C226.08705325 223.6630661 229.40059735 226.9762462 232.71413969 230.28942805 C235.20826915 232.78328578 237.70240108 235.27714103 240.1965332 237.77099609 C241.02068558 238.59506045 241.84483796 239.41912481 242.69396466 240.26816081 C268.60566975 266.17695865 294.52695834 292.07613574 320.45532227 317.96826172 C349.56329591 347.03555488 378.66278703 376.11130518 407.75057858 405.19879544 C410.8490753 408.29719533 413.94760697 411.39556027 417.04616356 414.4939003 C418.19063429 415.63830486 418.19063429 415.63830486 419.35822564 416.8058287 C431.66281561 429.10929653 443.97554675 441.40458602 456.29113058 453.697048 C468.65583796 466.03897056 481.01128785 478.39010012 493.35727892 490.75074564 C500.70147117 498.10312008 508.05259018 505.4484092 515.41363057 512.78391644 C520.32142729 517.67605393 525.22019271 522.57710919 530.11152031 527.4857129 C532.90424726 530.28778373 535.70089107 533.08563057 538.50853495 535.87276147 C541.52370236 538.8660848 544.51944021 541.87810415 547.5134325 544.89260674 C548.40051481 545.76712567 549.28759712 546.6416446 550.20156071 547.54266411 C550.98953481 548.34238713 551.77750891 549.14211015 552.58936101 549.96606719 C553.27743247 550.65380623 553.96550393 551.34154526 554.67442604 552.05012488 C556 554 556 554 555.94185469 555.99978425 C554.75831577 558.51326453 553.30725128 560.06923705 551.34096402 562.03738481 C550.54849533 562.8378765 549.75602664 563.63836819 548.93954375 564.46311721 C548.05771547 565.33849369 547.17588719 566.21387016 546.26733685 567.1157732 C545.3253466 568.06149801 544.38401412 569.00787837 543.44328311 569.95485577 C540.84095518 572.57059243 538.22929784 575.17684039 535.61609691 577.78170847 C532.78062369 580.61139971 529.95381112 583.44972005 527.12590104 586.28696603 C522.16336186 591.2634535 517.19521498 596.23428777 512.22340012 601.20150757 C504.83037246 608.58772002 497.44588505 615.98242641 490.0630451 623.37882014 C476.11240665 637.35440956 462.15154031 651.31975202 448.18747517 665.28192411 C437.408112 676.05991601 426.63134128 686.84049371 415.85640907 697.62291527 C414.31023969 699.17013497 412.76406896 700.71735332 411.21789688 702.26457032 C410.45042803 703.03255852 409.68295917 703.80054672 408.89223368 704.59180729 C407.7389668 705.74585439 407.7389668 705.74585439 406.56240159 706.92321557 C405.79230662 707.69383453 405.02221165 708.4644535 404.22878046 709.25842455 C382.55994981 730.94184494 360.88796208 752.62210581 339.20952892 774.29592609 C338.39175695 775.11352611 337.57398498 775.93112613 336.73143203 776.77350191 C332.58630137 780.91774363 328.44114278 785.06195742 324.29597446 789.20616148 C323.47267889 790.02926601 322.64938332 790.85237054 321.80113941 791.70041764 C320.13623502 793.36493493 318.47132902 795.0294506 316.80642141 796.69396466 C290.88990787 822.60450572 264.98412744 848.52573525 239.08666992 874.45532227 C210.01467715 903.56335208 180.93436908 932.6630383 151.8418749 961.75057858 C148.74290295 964.84908052 145.64396089 967.94761234 142.54503822 971.04616356 C141.78195535 971.80914405 141.01887248 972.57212453 140.23266588 973.35822564 C128.68976458 984.89992975 117.15347718 996.44821729 105.62050438 1007.99984169 C92.51289221 1021.12864131 79.39669346 1034.24879022 66.26876756 1047.35727892 C58.91419468 1054.7014869 51.56668574 1062.05260263 44.22894677 1069.41363057 C39.33530129 1074.32143498 34.43273355 1079.22020071 29.52261126 1084.11152031 C26.71966348 1086.90424998 23.92093561 1089.70089406 21.13291731 1092.50853495 C18.13863145 1095.52370595 15.12565127 1098.51944297 12.11018658 1101.5134325 C11.2353818 1102.40051481 10.36057701 1103.28759712 9.459263 1104.20156071 C8.25929413 1105.38352186 8.25929413 1105.38352186 7.03508347 1106.58936101 C6.3471207 1107.27743247 5.65915792 1107.96550393 4.95034779 1108.67442604 C3 1110 3 1110 1.00047267 1109.9425431 C-1.51672147 1108.75654141 -3.0729737 1107.30095867 -5.04264617 1105.32994932 C-5.84431506 1104.53502231 -6.64598394 1103.74009531 -7.47194582 1102.92107961 C-8.3486408 1102.03650359 -9.22533577 1101.15192758 -10.12859726 1100.24054623 C-11.07572268 1099.29563889 -12.0235059 1098.35139052 -12.97188824 1097.40774474 C-15.59153088 1094.79734159 -18.2016746 1092.17761342 -20.81044632 1089.55635226 C-23.64435308 1086.71217108 -26.48692735 1083.87667563 -29.32843709 1081.04009396 C-34.31237805 1076.062385 -39.29069596 1071.07910664 -44.26542473 1066.0921917 C-51.66273941 1058.6768067 -59.06860209 1051.27000368 -66.47627475 1043.86496764 C-78.93559197 1031.40959666 -91.38790119 1018.9472415 -103.83626556 1006.48092461 C-116.16612225 994.13333182 -128.49906267 981.78883269 -140.83615875 969.44847298 C-141.60253356 968.68189195 -142.36890837 967.91531092 -143.15850666 967.12550016 C-147.05037162 963.23262024 -150.94229198 959.33979572 -154.83423367 955.44699252 C-182.41844034 927.85648049 -209.9956814 900.25901583 -237.56884766 872.6574707 C-264.3599265 845.83884973 -291.15414648 819.02337344 -317.95263672 792.2121582 C-318.77832353 791.38607681 -319.60401035 790.55999542 -320.45471798 789.70888125 C-328.74642133 781.41322242 -337.03818871 773.11762759 -345.33000301 764.82207964 C-362.22218378 747.92228973 -379.11393712 731.02207263 -396.00543213 714.12159729 C-397.17046145 712.95595016 -397.17046145 712.95595016 -398.35902672 711.76675461 C-450.24651066 659.85165719 -502.12402927 607.92660164 -554 556 C-552.55488794 552.69094036 -550.75881875 550.50926786 -548.21216285 547.96376586 C-547.41642197 547.16353039 -546.62068109 546.36329492 -545.80082685 545.5388099 C-544.92048219 544.66371927 -544.04013754 543.78862864 -543.13311577 542.88702011 C-542.18896213 541.94138742 -541.24524769 540.99531605 -540.30193406 540.04884541 C-537.69545375 537.43621084 -535.08274516 534.82988212 -532.46902527 532.22449289 C-529.63159243 529.39391408 -526.79995288 526.55755004 -523.96758854 523.72190118 C-518.9984645 518.74862386 -514.02562416 513.77908675 -509.05036163 508.81195068 C-501.65229986 501.42593924 -494.25995926 494.03422175 -486.86879936 486.64130443 C-474.43664845 474.20652312 -461.99984002 461.77640995 -449.56039047 449.34893036 C-437.23989098 437.04025604 -424.92145382 424.72952381 -412.60577774 412.41602325 C-411.8406518 411.65103479 -411.07552585 410.88604633 -410.28721428 410.09787639 C-406.40169804 406.2130368 -402.51621874 402.32816027 -398.63075365 398.44326952 C-371.09425928 370.91097842 -343.55312866 343.38332934 -316.00927734 315.85839844 C-289.24716669 289.11465002 -262.48715272 262.36880652 -235.72998047 235.62011719 C-234.90552466 234.79592443 -234.08106885 233.97173167 -233.23162953 233.12256337 C-224.95227314 224.84584398 -216.67295942 216.56908189 -208.39367697 208.29228854 C-191.52711307 191.43079736 -174.66026433 174.56959113 -157.79324341 157.70855713 C-157.0176881 156.9332764 -156.2421328 156.15799568 -155.44307582 155.3592216 C-103.63348764 103.56804156 -51.81725955 51.78350465 0 0 Z M-0.48473314 39.36006197 C-1.12971302 40.00519784 -1.7746929 40.6503337 -2.43921763 41.31501913 C-3.18254161 42.05609582 -3.9258656 42.79717252 -4.69171456 43.56070608 C-5.93194392 44.80487597 -5.93194392 44.80487597 -7.19722843 46.0741806 C-8.07127147 46.9470698 -8.94531451 47.81995899 -9.8458437 48.71929938 C-12.29433138 51.16558018 -14.74053114 53.61411037 -17.18583628 56.06357009 C-19.83799624 58.7191463 -22.49303792 61.37183858 -25.14772838 64.0248847 C-29.80756431 68.6826406 -34.46552667 73.3422637 -39.12229347 78.003088 C-46.04682478 84.93363603 -52.97420203 91.86133407 -59.90218198 98.78843452 C-71.55412368 110.43905997 -83.20372954 122.09201843 -94.85202217 133.74629211 C-106.39119364 145.29137346 -117.93139215 156.83542659 -129.47297478 168.37809753 C-130.18964732 169.09483882 -130.90631987 169.8115801 -131.64470976 170.55004082 C-135.28408935 174.18975872 -138.92348739 177.82945816 -142.56289255 181.46915048 C-168.36448465 207.27284497 -194.16375574 233.07885893 -219.96166992 258.88623047 C-245.0295087 283.96324838 -270.09839373 309.03921962 -295.16870117 334.11376953 C-295.94099655 334.88619644 -296.71329193 335.65862334 -297.5089902 336.45445713 C-305.26444891 344.21123432 -313.01992895 351.96799018 -320.77542463 359.72473041 C-336.57533652 375.52717876 -352.37510601 391.3297695 -368.17478943 407.13244629 C-368.90128991 407.85908406 -369.6277904 408.58572184 -370.37630604 409.33437894 C-418.91992246 457.8872015 -467.4602186 506.44334348 -516 555 C-511.36359476 560.56576061 -506.4257599 565.71407855 -501.29685402 570.82619381 C-500.42886037 571.6953413 -499.56086673 572.56448879 -498.66657025 573.45997408 C-496.26198178 575.86674958 -493.8551788 578.27127047 -491.4474072 580.67485899 C-488.82659292 583.29222851 -486.20869375 585.91251105 -483.59042108 588.5324226 C-479.00302378 593.12189101 -474.41377584 597.70950229 -469.82330704 602.29589844 C-462.99747265 609.11569378 -456.17451164 615.93835841 -449.35213494 622.76161253 C-437.87531532 634.23974564 -426.39617066 645.71555082 -414.91569901 657.19003105 C-403.54862056 668.55119245 -392.18257679 679.91338732 -380.81791306 691.27696419 C-380.11128864 691.98351987 -379.40466422 692.69007555 -378.67662693 693.41804201 C-375.08804309 697.00628751 -371.49947773 700.5945515 -367.91091947 704.18282259 C-342.4932313 729.59841037 -317.07322544 755.01167889 -291.65185547 780.42358398 C-266.95536879 805.11088629 -242.2599327 829.79923874 -217.56591797 854.48901367 C-216.42414893 855.63058542 -216.42414893 855.63058542 -215.25931385 856.79521922 C-207.61523816 864.43797639 -199.97118382 872.08075492 -192.32714513 879.72354909 C-176.75536037 895.29279763 -161.18343311 910.86190364 -145.61141968 926.43092346 C-144.89544407 927.14676178 -144.17946846 927.8626001 -143.44179661 928.6001305 C-95.63025161 976.40247485 -47.81538477 1024.2014965 0 1072 C3.19074277 1070.59103338 5.33283713 1068.9167574 7.79257703 1066.45581996 C8.53834264 1065.71454894 9.28410826 1064.97327791 10.05247283 1064.20954412 C10.86659833 1063.39016459 11.68072383 1062.57078506 12.51951981 1061.72657585 C13.82817898 1060.42137821 13.82817898 1060.42137821 15.16327572 1059.08981293 C17.59510954 1056.66237645 20.02235585 1054.23050918 22.44781724 1051.79671515 C25.08334038 1049.15433603 27.72465059 1046.51775262 30.36524463 1043.88044274 C34.99605148 1039.25378855 39.62311838 1034.62342007 44.24778366 1029.99062729 C51.12454679 1023.10181231 58.00701699 1016.21872065 64.89068684 1009.33680808 C76.46898945 997.76113569 88.04262407 986.18080671 99.61362457 974.59783554 C111.07380827 963.12582618 122.53605016 951.65587976 134.00106049 940.188694 C135.06952142 939.12002685 135.06952142 939.12002685 136.15956741 938.02977047 C139.7768853 934.41177594 143.39424012 930.79381834 147.01160917 927.17587496 C172.64715703 901.53612396 198.27806278 875.89173705 223.90625 850.24462891 C248.80689926 825.32561705 273.70964383 800.40870219 298.61523438 775.49462891 C299.38265301 774.72694722 300.15007164 773.95926553 300.94074539 773.16832077 C308.64733559 765.45909357 316.35396847 757.74990905 324.06063263 750.0407558 C339.7606195 734.33569623 355.46032141 718.63035181 371.15985107 702.92483521 C371.88172322 702.20268848 372.60359537 701.48054175 373.34734243 700.73651179 C421.56966807 652.49577839 469.78535029 604.24840502 518 556 C516.59113676 552.80978607 514.91711661 550.66723028 512.45697063 548.20742297 C511.71595583 547.46165736 510.97494103 546.71589174 510.21147123 545.94752717 C509.39237755 545.13340167 508.57328387 544.31927617 507.72936916 543.48048019 C506.859537 542.60804074 505.98970483 541.73560129 505.09351411 540.83672428 C502.66691133 538.4048914 500.23587833 535.97764391 497.80291651 533.55218276 C495.16143076 530.91665366 492.52573464 528.27534548 489.88930994 525.63475537 C485.26419272 521.00394296 480.6353542 516.37687636 476.00408554 511.75221634 C469.11750692 504.87543763 462.23664228 497.99296293 455.35693265 491.10931316 C443.78482694 479.53092524 432.20799189 467.95727683 420.6284008 456.38637543 C409.15939712 444.92597675 397.69224054 433.46373554 386.22763252 421.99893951 C385.51533288 421.28663223 384.80303324 420.57432494 384.06914876 419.84043259 C381.17795787 416.94920079 378.28677933 414.05795664 375.39561763 411.16669564 C348.25938195 384.02955333 321.11771938 356.89784488 293.97334051 329.76884818 C269.83530016 305.64443595 245.70095982 281.51632866 221.57006836 257.38476562 C220.02034629 255.83500314 218.47062419 254.28524068 216.92090207 252.73547825 C215.77169432 251.58623998 215.77169432 251.58623998 214.59927026 250.41378477 C210.74296591 246.55737963 206.88665645 242.7009796 203.03034115 238.84458542 C202.26961771 238.08384527 201.50889427 237.32310512 200.72511861 236.53931223 C180.58388642 216.39771523 160.44020498 196.25856809 140.29568678 176.12025762 C139.57953149 175.4043226 138.8633762 174.68838758 138.12551924 173.95075756 C135.2454446 171.07157119 132.3653699 168.19238488 129.48528225 165.31321153 C119.44789592 155.27898997 109.41133967 145.24393883 99.3753148 135.20835557 C86.44671691 122.28035366 73.516433 109.35404187 60.5832023 96.43067452 C53.73651719 89.58912028 46.8912064 82.74619774 40.04784392 75.90131996 C35.4855789 71.33832409 30.9215148 66.77713319 26.35593457 62.21745442 C23.74879433 59.6135845 21.14247362 57.0089077 18.53830563 54.40206489 C15.74314544 51.60407521 12.94418939 48.80990366 10.1447897 46.01615524 C9.32335485 45.19266508 8.50192 44.36917491 7.65559319 43.5207305 C6.9170819 42.78497895 6.17857062 42.04922741 5.4176802 41.29118037 C4.77689134 40.650683 4.13610247 40.01018564 3.47589576 39.35027926 C1.49568211 37.5342703 1.49568211 37.5342703 -0.48473314 39.36006197 Z " fill="#F58A11" transform="translate(780,226)"/>
<path d="M0 0 C2.4922314 0.00314829 4.98325687 -0.02035768 7.4753418 -0.0456543 C31.30266411 -0.1397836 52.7047331 5.53675419 74.32495117 15.31567383 C75.29432617 15.71786133 76.26370117 16.12004883 77.26245117 16.53442383 C79.32495117 18.31567383 79.32495117 18.31567383 80.03198242 21.68286133 C80.09406733 23.1845939 80.12648618 24.68769844 80.13745117 26.19067383 C80.1740686 27.4363916 80.1740686 27.4363916 80.21142578 28.70727539 C80.28757462 31.9105476 80.30959165 35.11150766 80.32495117 38.31567383 C80.32906006 39.041698 80.33316895 39.76772217 80.33740234 40.51574707 C80.40086038 52.11599517 80.38473661 63.71545967 80.32495117 75.31567383 C78.67495117 75.31567383 77.02495117 75.31567383 75.32495117 75.31567383 C74.86233887 74.44056152 74.39972656 73.56544922 73.9230957 72.66381836 C69.08080027 63.50803705 64.22254741 54.36085372 59.34405518 45.2243042 C58.44042721 43.53194329 57.53765568 41.83912514 56.63500977 40.14624023 C55.31273899 37.67613723 53.97872776 35.2129938 52.63745117 32.75317383 C52.09725342 31.7411792 52.09725342 31.7411792 51.54614258 30.70874023 C46.52034324 21.58906231 40.53621852 15.80231774 30.60620117 12.37817383 C10.13825301 6.65595176 -12.32810259 8.66986537 -30.92504883 19.06567383 C-53.16705156 33.3093209 -64.36810278 56.450672 -69.91015625 81.53637695 C-79.80080045 130.2914792 -81.00700529 195.68896936 -53.5637207 239.07250977 C-43.51240762 254.04459612 -29.76820344 263.5917884 -12.25317383 267.62817383 C-3.71152202 269.26936457 3.69039075 269.51786727 12.26245117 268.12817383 C12.98480957 268.01530029 13.70716797 267.90242676 14.45141602 267.78613281 C19.06347013 266.92831447 22.10035098 265.75405967 25.32495117 262.31567383 C27.494945 257.2892641 27.61586778 252.76261831 27.59960938 247.39208984 C27.60472031 246.51488281 27.60983124 245.63767578 27.61509705 244.73388672 C27.62895161 241.84571433 27.62803946 238.95778167 27.62573242 236.06958008 C27.62962146 234.05468152 27.63395656 232.03978377 27.63871765 230.02488708 C27.64617085 225.80595235 27.64589497 221.58710131 27.640625 217.36816406 C27.63482986 211.97014294 27.65176693 206.57246488 27.67496967 201.17450047 C27.68972312 197.01456205 27.69057654 192.85470596 27.68745995 188.69474602 C27.68797229 186.70489764 27.69319365 184.71504455 27.70327187 182.72522163 C27.7156509 179.93947362 27.70883589 177.15439024 27.69726562 174.36865234 C27.70490936 173.55232834 27.7125531 172.73600433 27.72042847 171.89494324 C27.66805937 166.17118467 26.89201337 160.91753976 22.6862793 156.65478516 C16.99450938 153.32825847 11.20127893 151.58888788 4.82495117 150.00317383 C3.81174805 149.73956055 2.79854492 149.47594727 1.75463867 149.2043457 C-0.71906821 148.56258212 -3.19524759 147.93338489 -5.67504883 147.31567383 C-5.67504883 145.66567383 -5.67504883 144.01567383 -5.67504883 142.31567383 C31.61495117 142.31567383 68.90495117 142.31567383 107.32495117 142.31567383 C107.32495117 143.96567383 107.32495117 145.61567383 107.32495117 147.31567383 C106.58889648 147.55801758 105.8528418 147.80036133 105.09448242 148.05004883 C96.0730933 151.07927763 96.0730933 151.07927763 89.71903992 157.87730408 C87.94972099 162.24113865 87.94192186 165.79811021 88.01953125 170.45458984 C88.02218994 171.3545166 88.02484863 172.25444336 88.02758789 173.18164062 C88.03452294 175.12794216 88.04791822 177.0742292 88.06708717 179.02044868 C88.09476982 182.10156797 88.09961995 185.18193347 88.09757996 188.26316833 C88.09405103 197.02043997 88.11725962 205.7771997 88.19091797 214.53417969 C88.23440925 219.89711882 88.239193 225.25893031 88.21933556 230.62199211 C88.21943315 232.66378116 88.23432356 234.70562518 88.26429176 236.74719429 C88.30509086 239.60147212 88.29673889 242.45173884 88.27734375 245.30615234 C88.30146835 246.14836838 88.32559296 246.99058441 88.35044861 247.85832214 C88.30405115 250.261041 88.18118888 252.0674904 87.32495117 254.31567383 C84.90742769 256.55971818 82.29899911 257.93119363 79.32495117 259.31567383 C78.22795898 259.9009082 77.1309668 260.48614258 76.00073242 261.08911133 C59.20434082 269.08739304 41.71017994 274.45827663 23.32495117 277.31567383 C22.68001709 277.41807373 22.03508301 277.52047363 21.37060547 277.62597656 C0.14522108 280.48358547 -24.03088436 279.96348397 -44.67504883 274.31567383 C-45.85719971 273.99421387 -45.85719971 273.99421387 -47.06323242 273.66625977 C-81.48744194 263.93598536 -108.25443314 241.87460549 -125.62036133 210.83911133 C-129.90691365 202.61858024 -133.16979596 194.23735233 -135.67504883 185.31567383 C-135.86196289 184.65148437 -136.04887695 183.98729492 -136.24145508 183.30297852 C-147.14046746 143.15574234 -142.73922513 98.64398471 -122.60864258 62.25317383 C-106.30707379 34.03829505 -77.54328646 14.19487819 -46.36254883 5.84692383 C-30.92595272 1.95205466 -15.91270486 -0.04180627 0 0 Z " fill="#FFCA28" transform="translate(919.675048828125,647.684326171875)"/>
<path d="M0 0 C0.78725464 0.00021149 1.57450928 0.00042297 2.38562012 0.00064087 C15.43047601 0.03549102 27.83816596 1.03087925 40.5 4.375 C41.22477539 4.56223633 41.94955078 4.74947266 42.69628906 4.94238281 C55.1986016 8.27058463 66.98572026 13.52928875 78.5 19.375 C79.26320834 36.0519141 79.64795835 52.68074611 79.5 69.375 C77.19775391 69.63623047 77.19775391 69.63623047 74.5 69.375 C72.82177734 67.64111328 72.82177734 67.64111328 71.3359375 65.1953125 C70.77656494 64.29449951 70.21719238 63.39368652 69.64086914 62.46557617 C68.76676392 60.99761597 68.76676392 60.99761597 67.875 59.5 C67.26325928 58.50653564 66.65151855 57.51307129 66.02124023 56.48950195 C64.16212937 53.46224936 62.32805295 50.42108768 60.5 47.375 C47.06378542 23.78339894 47.06378542 23.78339894 23.87890625 11.12890625 C4.577853 6.82242847 -15.83689728 10.92791365 -32.5 21.375 C-54.43889677 35.84366311 -64.82976473 60.74787983 -70.125 85.625 C-79.07157183 133.03210615 -80.61227381 195.68633665 -53.625 237.75 C-42.91708306 252.85983308 -29.19301113 263.30382814 -10.875 267.625 C7.42777078 270.6803582 27.59627856 270.59181827 44.01171875 260.890625 C50.19719489 256.45446097 53.9143289 251.03161054 57.21875 244.21875 C57.55998901 243.52551636 57.90122803 242.83228271 58.25280762 242.11804199 C62.32868352 233.77821571 66.16755657 225.32860795 70 216.875 C70.73410397 215.2615954 71.46847782 213.64831358 72.203125 212.03515625 C73.97184673 208.14983769 75.73697008 204.26290441 77.5 200.375 C79.15 200.375 80.8 200.375 82.5 200.375 C82.66771906 220.06521726 82.19022656 239.69987154 81.5 259.375 C36.89400115 279.99541835 -12.58379725 285.99652049 -59.4296875 268.96484375 C-90.20003428 257.38254962 -114.45046025 235.34686076 -128.35058594 205.55175781 C-132.4018335 196.48058984 -135.44818295 187.09882864 -137.5 177.375 C-137.65098145 176.6629541 -137.80196289 175.9509082 -137.95751953 175.21728516 C-145.89627553 135.57488868 -140.75034611 91.5509281 -118.5234375 57.33203125 C-113.98349747 50.92004423 -108.89098013 45.08085154 -103.5 39.375 C-102.86449219 38.68664062 -102.22898437 37.99828125 -101.57421875 37.2890625 C-83.22516386 18.06624309 -57.39041549 6.90325904 -31.5 2.375 C-30.50919434 2.19984863 -29.51838867 2.02469727 -28.49755859 1.84423828 C-18.96595758 0.31322743 -9.62757249 -0.02399403 0 0 Z " fill="#FFCA28" transform="translate(678.5,647.625)"/>
</svg>
